<svg width="127" height="116" viewBox="0 0 127 116" fill="none" xmlns="http://www.w3.org/2000/svg">
<path d="M24.6094 96.0146H66.9668V116H0V63.4971L7.53516 59.5H24.6094V96.0146ZM24.6094 54.5H6.29297L5.74316 54.792L0 57.8379V50.5H24.6094V54.5ZM24.6094 45.5H0V14.1816H24.6094V45.5Z" fill="white"/>
<path d="M22.2939 52.5H45.2939L58.7939 41H77.7939" stroke="white" stroke-width="4"/>
<path d="M23.2939 43H39.1237L47.2939 36" stroke="white" stroke-width="5"/>
<path d="M23.2939 62H41.2939L55.2939 76" stroke="white" stroke-width="5"/>
<circle cx="60.2939" cy="80" r="6" stroke="white" stroke-width="4"/>
<circle cx="84.2939" cy="42" r="6" stroke="white" stroke-width="4"/>
<circle cx="110.294" cy="28" r="6" stroke="white" stroke-width="4"/>
<circle cx="37.2939" cy="27" r="6" stroke="white" stroke-width="4"/>
<circle cx="93.2939" cy="8" r="6" stroke="white" stroke-width="4"/>
<path d="M60.7939 73.5V64.5L72.2939 53V42" stroke="white" stroke-width="4"/>
<path d="M58.7939 41V22.5L63.7939 19.6133H76.2939" stroke="white" stroke-width="4"/>
<path d="M59.2939 33L67.9541 28H105.794" stroke="white" stroke-width="4"/>
<path d="M106.794 32.5L99.6934 59" stroke="white" stroke-width="4"/>
<path d="M113.443 33L120.544 59.5" stroke="white" stroke-width="4"/>
<path d="M41.2939 23.5L56.2939 8.5H89.2939" stroke="white" stroke-width="4"/>
<path d="M94.2939 56.5C94.2939 57.4849 94.7078 58.4602 95.5119 59.3701C96.316 60.2801 97.4945 61.1069 98.9802 61.8033C100.466 62.4997 102.23 63.0522 104.171 63.4291C106.112 63.806 108.193 64 110.294 64C112.395 64 114.476 63.806 116.417 63.4291C118.358 63.0522 120.122 62.4997 121.608 61.8033C123.093 61.1069 124.272 60.2801 125.076 59.3701C125.88 58.4602 126.294 57.4849 126.294 56.5L110.294 56.5L94.2939 56.5Z" fill="white"/>
</svg>
